<?xml version="1.0" encoding="UTF-8"?>
<svg xmlns="http://www.w3.org/2000/svg" xmlns:xlink="http://www.w3.org/1999/xlink"
     width="900" height="250" viewBox="0 0 900 250">
<defs>
<marker markerWidth="18.0" markerHeight="12.0" viewBox="-1 -3 9 6" orient="auto" id="arrow">
<path d="M-1,-3 L7,0 L-1,3 Z" fill="#222" />
</marker>
</defs>
<use xlink:href="#arrow" />
<rect x="331.0" y="20.0" width="340" height="84" rx="8" ry="8" fill="#f4f4f4" stroke="#222" stroke-width="1" />
<text x="339.0" y="34.0" font-size="11" font-family="Helvetica, Arial, sans-serif" fill="#555">inner AR head</text>
<rect x="343.0" y="48.0" width="96" height="44" rx="4" ry="4" fill="#fff3cf" stroke="#222" stroke-width="1.2" />
<text x="391.0" y="68" font-size="12" font-family="Helvetica, Arial, sans-serif" text-anchor="middle">sign</text>
<text x="391.0" y="84" font-size="11" font-family="Helvetica, Arial, sans-serif" fill="#555" text-anchor="middle">1 bit</text>
<rect x="453.0" y="48.0" width="96" height="44" rx="4" ry="4" fill="#fff3cf" stroke="#222" stroke-width="1.2" />
<text x="501.0" y="68" font-size="12" font-family="Helvetica, Arial, sans-serif" text-anchor="middle">exponent</text>
<text x="501.0" y="84" font-size="11" font-family="Helvetica, Arial, sans-serif" fill="#555" text-anchor="middle">11 bits</text>
<rect x="563.0" y="48.0" width="96" height="44" rx="4" ry="4" fill="#fff3cf" stroke="#222" stroke-width="1.2" />
<text x="611.0" y="68" font-size="12" font-family="Helvetica, Arial, sans-serif" text-anchor="middle">mantissa</text>
<text x="611.0" y="84" font-size="11" font-family="Helvetica, Arial, sans-serif" fill="#555" text-anchor="middle">52 bits</text>
<path d="M439.0,70 L446.0,70" stroke="#222" stroke-width="1.4" marker-end="url(#arrow)" />
<path d="M549.0,70 L556.0,70" stroke="#222" stroke-width="1.4" marker-end="url(#arrow)" />
<rect x="173.0" y="172.0" width="68" height="36" rx="4" ry="4" fill="#ffffff" stroke="#222" stroke-width="1.2" />
<text x="207.0" y="195" font-size="14" font-family="Helvetica, Arial, sans-serif" text-anchor="middle">'one'</text>
<rect x="251.0" y="172.0" width="84" height="36" rx="4" ry="4" fill="#ffffff" stroke="#222" stroke-width="1.2" />
<text x="293.0" y="195" font-size="14" font-family="Helvetica, Arial, sans-serif" text-anchor="middle">' inch'</text>
<rect x="345.0" y="172.0" width="68" height="36" rx="4" ry="4" fill="#ffffff" stroke="#222" stroke-width="1.2" />
<text x="379.0" y="195" font-size="14" font-family="Helvetica, Arial, sans-serif" text-anchor="middle">' is'</text>
<rect x="423.0" y="172.0" width="156" height="36" rx="4" ry="4" fill="#fff3cf" stroke="#222" stroke-width="1.2" />
<text x="501.0" y="195" font-size="14" font-family="Helvetica, Arial, sans-serif" text-anchor="middle">'&lt;scalar_token&gt;'</text>
<rect x="589.0" y="172.0" width="68" height="36" rx="4" ry="4" fill="#ffffff" stroke="#222" stroke-width="1.2" />
<text x="623.0" y="195" font-size="14" font-family="Helvetica, Arial, sans-serif" text-anchor="middle">' cm'</text>
<rect x="667.0" y="172.0" width="60" height="36" rx="4" ry="4" fill="#ffffff" stroke="#222" stroke-width="1.2" />
<text x="697.0" y="195" font-size="14" font-family="Helvetica, Arial, sans-serif" text-anchor="middle">'.'</text>
<path d="M241.0,190 L244.0,190" stroke="#222" stroke-width="1.4" marker-end="url(#arrow)" />
<path d="M335.0,190 L338.0,190" stroke="#222" stroke-width="1.4" marker-end="url(#arrow)" />
<path d="M413.0,190 L416.0,190" stroke="#222" stroke-width="1.4" marker-end="url(#arrow)" />
<path d="M579.0,190 L582.0,190" stroke="#222" stroke-width="1.4" marker-end="url(#arrow)" />
<path d="M657.0,190 L660.0,190" stroke="#222" stroke-width="1.4" marker-end="url(#arrow)" />
<path d="M501.0,172.0 L501.0,105.0" stroke="#222" stroke-width="1.4" stroke-dasharray="4 4" marker-start="url(#arrow)" />
</svg>